HIERARCHY
ROOT Hips
{
	OFFSET	0.00	0.00	0.00
	CHANNELS 6 Xposition Yposition Zposition Zrotation Xrotation Yrotation
	JOINT Chest
	{
		OFFSET	0.00	4.21	0.00
		CHANNELS 3 Zrotation Xrotation Yrotation
		JOINT Neck
		{
			OFFSET	0.00	17.08	0.00
			CHANNELS 3 Zrotation Xrotation Yrotation
			JOINT Head
			{
				OFFSET	0.00	3.97	0.00
				CHANNELS 3 Zrotation Xrotation Yrotation
				End Site 
				{
					OFFSET	0.00	3.23	0.00
				}
			}
		}
		JOINT LeftCollar
		{
			OFFSET	1.02	14.86	1.71
			CHANNELS 3 Zrotation Xrotation Yrotation
			JOINT LeftUpArm
			{
				OFFSET	5.45	0.00	0.00
				CHANNELS 3 Zrotation Xrotation Yrotation
				JOINT LeftLowArm
				{
					OFFSET	0.00	-11.29	0.00
					CHANNELS 3 Zrotation Xrotation Yrotation
					JOINT LeftHand
					{
						OFFSET	0.00	-8.34	0.00
						CHANNELS 3 Zrotation Xrotation Yrotation
						End Site 
						{
							OFFSET	0.00	-6.13	0.00
						}
					}
				}
			}
		}
		JOINT RightCollar
		{
			OFFSET	-1.02	14.86	1.71
			CHANNELS 3 Zrotation Xrotation Yrotation
			JOINT RightUpArm
			{
				OFFSET	-5.52	0.00	0.00
				CHANNELS 3 Zrotation Xrotation Yrotation
				JOINT RightLowArm
				{
					OFFSET	0.00	-10.77	0.00
					CHANNELS 3 Zrotation Xrotation Yrotation
					JOINT RightHand
					{
						OFFSET	0.00	-7.98	0.00
						CHANNELS 3 Zrotation Xrotation Yrotation
						End Site 
						{
							OFFSET	0.00	-6.40	0.00
						}
					}
				}
			}
		}
	}
	JOINT LeftUpLeg
	{
		OFFSET	2.99	0.00	0.00
		CHANNELS 3 Zrotation Xrotation Yrotation
		JOINT LeftLowLeg
		{
			OFFSET	0.00	-15.03	0.00
			CHANNELS 3 Zrotation Xrotation Yrotation
			JOINT LeftFoot
			{
				OFFSET	0.00	-15.42	0.00
				CHANNELS 3 Zrotation Xrotation Yrotation
				End Site 
				{
					OFFSET	0.00	-2.17	0.00
				}
			}
		}
	}
	JOINT RightUpLeg
	{
		OFFSET	-2.57	-0.21	0.00
		CHANNELS 3 Zrotation Xrotation Yrotation
		JOINT RightLowLeg
		{
			OFFSET	0.00	-15.37	0.00
			CHANNELS 3 Zrotation Xrotation Yrotation
			JOINT RightFoot
			{
				OFFSET	0.00	-14.84	0.00
				CHANNELS 3 Zrotation Xrotation Yrotation
				End Site 
				{
					OFFSET	0.00	-2.20	0.00
				}
			}
		}
	}
}
MOTION
Frames:    17
Frame Time: 0.033333
-40.03	33.87	-28.22	8.96	-9.69	20.98	-2.31	5.56	4.08	-7.24	35.97	-12.56	19.12	-35.76	41.54	-6.82	0.00	16.68	93.36	-37.81	-17.01	0.00	-76.31	28.16	-9.79	6.80	7.16	1.33	4.79	-23.99	-80.52	-18.86	-22.48	0.00	-81.60	-37.06	30.64	-0.18	3.56	-7.85	4.47	0.79	-4.48	-3.80	23.67	-4.84	13.37	2.47	1.94	27.86	0.11	5.66	8.59	-44.70	2.88	13.18	-1.76
-39.35	33.93	-27.23	9.54	-9.52	25.37	-2.01	4.98	4.20	-7.34	36.72	-12.69	19.21	-35.99	39.53	-6.79	0.00	17.31	93.34	-36.70	-18.66	0.00	-69.79	22.14	-10.33	6.61	6.89	1.01	4.83	-22.81	-80.76	-18.06	-21.76	0.00	-71.63	-32.64	30.00	-0.01	3.45	-8.74	6.53	1.26	-4.84	-2.72	19.56	-4.84	13.25	2.46	1.29	27.70	0.41	6.98	11.39	-42.82	2.89	13.94	-1.80
-38.69	34.05	-26.26	9.80	-9.38	29.50	-1.68	4.36	3.97	-7.43	37.36	-12.81	19.23	-36.23	37.50	-6.30	0.00	17.97	93.07	-35.94	-19.23	0.00	-63.19	16.95	-10.23	6.42	6.71	0.85	4.86	-22.11	-81.30	-17.80	-21.09	0.00	-61.63	-27.48	28.65	0.03	3.25	-9.24	8.70	1.75	-4.84	-2.26	16.62	-4.84	13.35	2.46	0.68	27.37	0.68	8.17	13.32	-39.98	2.89	13.77	-1.79
-38.07	34.22	-25.33	9.73	-9.16	33.47	-1.28	3.66	3.38	-7.52	37.87	-12.90	19.19	-36.49	35.50	-5.51	0.00	18.69	92.61	-35.64	-18.80	0.00	-56.50	11.92	-9.49	6.20	6.61	0.63	4.86	-22.01	-81.86	-18.27	-20.58	0.00	-51.82	-21.51	26.50	-0.12	2.98	-9.36	10.68	2.16	-4.63	-2.30	14.64	-4.85	13.71	2.50	0.22	26.96	0.89	8.81	13.67	-36.60	2.87	12.69	-1.74
-37.51	34.44	-24.49	9.44	-8.93	37.26	-0.87	3.03	2.63	-7.61	38.24	-12.98	19.13	-36.78	33.53	-4.64	0.00	19.27	92.10	-35.65	-17.18	0.00	-49.60	6.76	-8.13	5.94	6.60	0.26	4.85	-22.36	-82.35	-19.20	-20.38	0.00	-42.46	-15.11	23.51	-0.48	2.63	-9.17	12.44	2.47	-4.30	-2.70	13.38	-4.87	14.51	2.57	-0.07	26.68	1.01	8.62	12.36	-33.03	2.86	11.29	-1.67
-37.00	34.68	-23.73	8.97	-8.71	40.71	-0.42	2.49	1.82	-7.68	38.45	-13.03	19.05	-37.09	31.62	-3.77	0.00	19.74	91.49	-35.93	-14.22	0.00	-42.55	0.94	-6.19	5.65	6.66	-0.16	4.83	-22.88	-82.87	-20.35	-20.58	0.00	-33.73	-8.96	19.72	-1.07	2.21	-8.68	13.91	2.64	-4.00	-3.33	12.90	-4.89	15.64	2.67	-0.14	26.44	1.03	7.62	9.89	-29.26	2.85	10.42	-1.62
-36.54	34.93	-23.04	8.35	-8.58	43.79	0.11	2.05	1.19	-7.76	38.51	-13.05	18.99	-37.43	29.80	-2.95	0.00	19.92	90.75	-36.37	-9.62	0.00	-35.57	-6.05	-3.75	5.31	6.80	-0.64	4.82	-23.27	-83.30	-21.16	-21.24	0.00	-25.99	-3.24	15.23	-1.89	1.72	-7.97	15.09	2.67	-3.70	-4.01	13.01	-4.93	17.00	2.79	-0.04	26.17	0.97	6.24	7.15	-25.18	2.85	10.52	-1.63
-36.14	35.17	-22.42	7.75	-8.55	46.49	0.60	1.80	0.78	-7.82	38.41	-13.05	18.96	-37.80	28.09	-2.20	0.00	19.74	89.89	-36.87	-2.98	0.00	-28.99	-14.90	-0.88	4.93	7.00	-1.02	4.81	-23.51	-83.69	-21.47	-22.20	0.00	-19.54	1.75	10.20	-2.90	1.17	-7.07	15.97	2.56	-3.56	-4.43	13.46	-4.96	18.33	2.91	0.17	25.94	0.87	4.89	4.87	-20.67	2.86	11.66	-1.68
-35.77	35.38	-21.85	7.21	-8.58	48.86	0.98	1.69	0.54	-7.88	38.16	-13.03	18.97	-38.19	26.49	-1.56	0.00	19.38	88.97	-37.43	6.47	0.00	-23.22	-25.95	2.32	4.52	7.24	-1.32	4.81	-23.40	-83.70	-21.06	-23.57	0.00	-14.66	5.99	4.86	-4.07	0.58	-6.09	16.49	2.36	-3.51	-4.37	14.13	-5.00	19.62	3.03	0.48	25.75	0.74	3.87	3.44	-15.89	2.88	13.27	-1.77
-35.43	35.56	-21.31	6.88	-8.54	50.99	1.02	1.73	0.32	-7.93	37.77	-12.98	19.04	-38.61	25.03	-0.88	0.00	18.94	87.67	-37.91	19.65	0.00	-18.81	-39.86	5.75	4.07	7.54	-1.44	4.83	-22.89	-83.20	-19.99	-25.43	0.00	-11.46	9.57	-0.59	-5.36	-0.03	-5.13	16.43	2.08	-3.68	-3.33	14.58	-5.03	20.56	3.12	0.80	25.67	0.59	3.28	2.89	-11.18	2.90	14.87	-1.85
-35.11	35.69	-20.81	6.75	-8.35	52.91	0.74	2.00	0.26	-7.97	37.24	-12.91	19.16	-39.06	23.69	-0.41	0.00	18.50	86.21	-38.09	34.79	0.00	-16.78	-54.19	9.31	3.57	7.88	-1.42	4.85	-22.33	-81.99	-18.52	-27.62	0.00	-10.03	12.18	-5.95	-6.69	-0.64	-4.20	15.62	1.72	-4.20	-0.99	14.88	-5.05	21.15	3.17	1.16	25.73	0.44	3.05	2.97	-7.04	2.92	15.99	-1.91
-34.83	35.74	-20.35	6.84	-7.95	54.57	0.14	2.57	0.29	-8.01	36.60	-12.83	19.33	-39.55	22.49	-0.14	0.00	18.13	84.33	-37.51	46.32	0.00	-17.55	-63.31	12.88	3.01	8.26	-1.18	4.87	-21.61	-80.19	-16.62	-29.18	0.00	-10.54	12.66	-11.04	-8.03	-1.21	-3.41	13.72	1.33	-5.08	3.17	15.00	-5.05	21.11	3.17	1.47	25.81	0.30	3.06	3.63	-3.85	2.92	16.29	-1.93
-34.57	35.67	-19.95	7.11	-7.34	55.92	-0.72	3.56	0.54	-8.04	35.85	-12.73	19.54	-40.06	21.39	-0.19	0.00	17.78	81.98	-35.93	50.62	0.00	-20.96	-63.93	16.35	2.37	8.70	-0.75	4.89	-21.03	-77.74	-14.55	-30.12	0.00	-13.23	11.13	-15.71	-9.32	-1.73	-2.86	10.60	0.93	-6.39	9.15	15.36	-5.02	20.30	3.09	1.66	25.83	0.22	3.18	4.85	-1.83	2.91	15.62	-1.89
-34.36	35.43	-19.60	7.47	-6.57	56.95	-1.62	4.95	0.97	-8.07	35.03	-12.62	19.79	-40.61	20.39	-0.76	0.00	17.29	79.43	-33.15	49.33	0.00	-26.60	-58.16	19.62	1.66	9.20	-0.04	4.91	-20.45	-74.83	-12.20	-30.83	0.00	-18.44	8.44	-19.84	-10.52	-2.15	-2.53	6.21	0.51	-8.18	16.61	16.36	-4.97	18.51	2.93	1.70	25.70	0.20	3.32	6.72	-1.02	2.89	13.85	-1.80
-34.16	34.98	-19.30	7.90	-5.65	57.68	-2.54	6.69	1.55	-8.10	34.15	-12.50	20.05	-41.20	19.46	-1.74	0.00	16.54	76.81	-29.14	45.58	0.00	-34.14	-49.78	22.62	0.89	9.76	0.79	4.93	-19.85	-71.53	-9.76	-31.40	0.00	-25.82	5.44	-23.30	-11.58	-2.48	-2.52	0.85	0.07	-10.53	24.48	18.32	-4.89	15.62	2.66	1.55	25.39	0.27	3.38	9.36	-1.10	2.85	10.66	-1.63
-33.96	34.31	-19.05	8.28	-4.73	58.12	-3.26	8.69	2.09	-8.15	33.23	-12.38	20.31	-41.78	18.56	-3.07	0.00	15.62	74.24	-24.19	41.61	0.00	-42.94	-41.69	25.36	0.13	10.39	1.64	4.95	-19.11	-68.14	-7.54	-31.67	0.00	-34.74	2.85	-26.00	-12.46	-2.68	-2.72	-5.12	-0.44	-13.33	31.41	21.36	-4.81	11.77	2.33	1.33	24.91	0.35	3.29	12.85	-1.49	2.82	6.05	-1.40
-33.72	33.45	-18.82	8.64	-3.88	58.30	-3.79	10.89	2.55	-8.18	32.29	-12.25	20.57	-42.30	17.69	-4.48	0.00	14.67	71.67	-18.63	37.90	0.00	-52.40	-35.03	27.86	-0.56	11.06	2.54	4.98	-18.20	-65.10	-5.83	-31.44	0.00	-44.22	0.92	-27.87	-13.14	-2.77	-3.09	-11.06	-1.01	-16.25	35.98	24.99	-4.75	7.30	1.95	1.08	24.34	0.45	3.06	17.16	-1.88	2.80	0.29	-1.12
